<svg xmlns="http://www.w3.org/2000/svg" height="265" width="1550"><g fill="#fff"><path d="M474.462 228.305l-52.128-70.032-26.973 29.688v40.344h-26.743V69.656h26.743v82.042l75.7-82.042h31.503l-61.42 67.766 65.499 90.883zM654.176 168.699l-29.914-70.486-29.92 70.486zm10.2 23.796h-80.005l-15.186 35.811H541.31l70.032-158.651h27.423l69.352 158.651H679.56zM786.523 69.656v134.399h68.673v24.25H759.78V69.655zM1024.717 69.656v24.023H938.14v43.061h77.515v23.8H938.14v43.742h89.298v24.023H911.397V69.655zM1117.403 228.304h-26.744V69.655h26.744zM1309.816 149.206c0-32.408-24.25-55.528-55.529-55.528h-37.848v110.606h38.983c30.822 0 54.394-22.894 54.394-55.078m26.97-.227c0 45.782-34.674 79.327-82.726 79.327h-64.367V69.655h65.048c47.598 0 82.045 33.315 82.045 79.324M1403.631 148.98c0 31.502 26.065 56.435 57.117 56.435 31.05 0 56.43-24.933 56.43-56.436s-25.38-55.982-56.43-55.982c-31.278 0-57.117 24.48-57.117 55.982m140.972 0c0 45.329-36.714 80.46-84.082 80.46-47.37 0-84.087-35.131-84.087-80.46 0-45.555 36.717-80.005 84.087-80.005 47.368 0 84.082 34.677 84.082 80.005"/><g><path d="M166.849 177.678zm0 0l87.287 85.908 52.276-90.543zM277.204 42.578l-65.822 123.166 118.088-32.639zM149.49 2.639l73.832 118.535 30.814-118.55c-34.882-.098-69.764-.044-104.646.015zM103.47 2.625C94.63 17.94 51.2 93.164 51.2 93.164l139.405-4.518.107-.029zm15.483 105.433c-202.568 251.08-101.284 125.54 0 0z"/><path d="M145.986 100.603l-117.85 32.502 52.418 90.791zM134.253 145.08L103.47 263.586h104.567z"/></g></g></svg>